<svg width="1440" height="1889" viewBox="0 0 1440 1889" fill="none" xmlns="http://www.w3.org/2000/svg">
  <g clip-path="url(#clip0_1_1034)">
    <g filter="url(#filter0_f_1_1034)">
      <path d="M961.838 1205.63C916.071 1182.82 921.15 1121.38 871.024 1111.28C784.695 1093.88 830.526 1258.62 871.024 1336.84C949.223 1487.87 1351.79 1500.77 1306.45 1336.84C1287.3 1267.61 1259.53 1210.92 1189.53 1194.87C1138.72 1183.23 1111.8 1226.69 1059.67 1225.81C1020.67 1225.16 996.755 1223.03 961.838 1205.63Z" fill="#02523A" />
    </g>
    <g opacity="0.4" filter="url(#filter1_f_1_1034)">
      <path d="M311.055 2235.29C257.034 2208.38 263.03 2135.91 203.864 2123.99C101.968 2103.46 156.063 2297.81 203.864 2390.08C296.165 2568.26 771.327 2583.48 717.81 2390.08C695.21 2308.41 662.428 2241.53 579.809 2222.61C519.83 2208.87 488.055 2260.14 426.531 2259.11C380.492 2258.33 352.268 2255.82 311.055 2235.29Z" fill="#5A4AF4" />
    </g>
    <g filter="url(#filter2_f_1_1034)">
      <ellipse cx="688.26" cy="1283.26" rx="200.84" ry="133.281" transform="rotate(-135 688.26 1283.26)" fill="#492C66" />
    </g>
    <g opacity="0.4" filter="url(#filter3_f_1_1034)">
      <ellipse cx="908.74" cy="2226.74" rx="236.953" ry="157.246" transform="rotate(-135 908.74 2226.74)" fill="#1EA5FC" />
    </g>
    <g filter="url(#filter4_f_1_1034)">
      <ellipse cx="1130.74" cy="303.743" rx="200.84" ry="133.281" transform="rotate(-135 1130.74 303.743)" fill="#251E62" />
    </g>
    <g filter="url(#filter5_f_1_1034)">
      <path d="M263.838 426.626C218.071 403.817 223.15 342.379 173.024 332.277C86.695 314.88 132.526 479.618 173.024 557.837C251.223 708.874 653.791 721.769 608.45 557.837C589.303 488.609 561.529 431.916 491.532 415.875C440.717 404.23 413.797 447.687 361.672 446.813C322.667 446.158 298.755 444.028 263.838 426.626Z" fill="#0C4265" />
    </g>
  </g>
  <defs>
    <filter id="filter0_f_1_1034" x="472" y="760" width="1188" height="1045" filterUnits="userSpaceOnUse" color-interpolation-filters="sRGB">
      <feFlood flood-opacity="0" result="BackgroundImageFix" />
      <feBlend mode="normal" in="SourceGraphic" in2="BackgroundImageFix" result="shape" />
      <feGaussianBlur stdDeviation="175" result="effect1_foregroundBlur_1_1034" />
    </filter>
    <filter id="filter1_f_1_1034" x="-204" y="1772.48" width="1276" height="1107" filterUnits="userSpaceOnUse" color-interpolation-filters="sRGB">
      <feFlood flood-opacity="0" result="BackgroundImageFix" />
      <feBlend mode="normal" in="SourceGraphic" in2="BackgroundImageFix" result="shape" />
      <feGaussianBlur stdDeviation="175" result="effect1_foregroundBlur_1_1034" />
    </filter>
    <filter id="filter2_f_1_1034" x="167.8" y="762.799" width="1040.92" height="1040.92" filterUnits="userSpaceOnUse" color-interpolation-filters="sRGB">
      <feFlood flood-opacity="0" result="BackgroundImageFix" />
      <feBlend mode="normal" in="SourceGraphic" in2="BackgroundImageFix" result="shape" />
      <feGaussianBlur stdDeviation="175" result="effect1_foregroundBlur_1_1034" />
    </filter>
    <filter id="filter3_f_1_1034" x="357.63" y="1675.63" width="1102.22" height="1102.22" filterUnits="userSpaceOnUse" color-interpolation-filters="sRGB">
      <feFlood flood-opacity="0" result="BackgroundImageFix" />
      <feBlend mode="normal" in="SourceGraphic" in2="BackgroundImageFix" result="shape" />
      <feGaussianBlur stdDeviation="175" result="effect1_foregroundBlur_1_1034" />
    </filter>
    <filter id="filter4_f_1_1034" x="610.283" y="-216.717" width="1040.92" height="1040.92" filterUnits="userSpaceOnUse" color-interpolation-filters="sRGB">
      <feFlood flood-opacity="0" result="BackgroundImageFix" />
      <feBlend mode="normal" in="SourceGraphic" in2="BackgroundImageFix" result="shape" />
      <feGaussianBlur stdDeviation="175" result="effect1_foregroundBlur_1_1034" />
    </filter>
    <filter id="filter5_f_1_1034" x="-226" y="-19" width="1188" height="1045" filterUnits="userSpaceOnUse" color-interpolation-filters="sRGB">
      <feFlood flood-opacity="0" result="BackgroundImageFix" />
      <feBlend mode="normal" in="SourceGraphic" in2="BackgroundImageFix" result="shape" />
      <feGaussianBlur stdDeviation="175" result="effect1_foregroundBlur_1_1034" />
    </filter>
    <clipPath id="clip0_1_1034">
      <rect width="1440" height="3192" fill="white" transform="translate(0 -160)" />
    </clipPath>
  </defs>
</svg>